<?xml version="1.0" standalone="no"?>
<!DOCTYPE svg PUBLIC "-//W3C//DTD SVG 20010904//EN"
 "http://www.w3.org/TR/2001/REC-SVG-20010904/DTD/svg10.dtd">
<svg version="1.0" xmlns="http://www.w3.org/2000/svg"
 width="600.000000pt" height="600.000000pt" viewBox="0 0 600.000000 600.000000"
 preserveAspectRatio="xMidYMid meet">
<metadata>
Created by potrace 1.14, written by Peter Selinger 2001-2017
</metadata>
<g transform="translate(0.000000,600.000000) scale(0.100000,-0.100000)"
fill="#000000" stroke="none">
<path d="M3745 4916 c-174 -57 -342 -201 -373 -321 -6 -22 -13 -132 -16 -245
-3 -113 -9 -221 -14 -240 -5 -19 -10 -145 -11 -280 -1 -135 -4 -353 -6 -485
-3 -188 -6 -814 -4 -920 0 -11 -2 -36 -4 -55 -8 -58 2 -90 28 -90 25 0 49 22
38 36 -4 5 -1 3 7 -3 11 -11 18 -9 37 9 21 20 22 23 7 39 -9 10 -13 23 -9 28
10 16 25 13 19 -4 -4 -8 7 -27 25 -46 17 -17 31 -32 31 -34 0 -2 -16 -1 -36 2
-30 5 -36 3 -41 -15 -3 -12 -10 -19 -19 -15 -16 6 -18 -6 -4 -27 9 -13 11 -13
20 0 7 11 10 12 10 2 0 -8 -9 -16 -20 -19 -11 -3 -20 -10 -21 -17 -1 -6 -2
-20 -3 -30 0 -11 -7 -21 -15 -24 -10 -3 -12 1 -9 15 7 27 -9 53 -32 53 -18 0
-20 -7 -20 -91 0 -57 4 -88 10 -84 6 3 10 1 10 -4 0 -6 6 -11 14 -11 22 0 30
-19 15 -36 -6 -8 -14 -12 -17 -9 -3 2 1 11 8 20 10 12 10 15 -1 15 -29 0 -35
-17 -33 -90 2 -98 1 -98 20 -72 l16 23 18 -21 c17 -20 19 -20 28 -3 15 26 27
7 14 -22 -12 -26 3 -49 18 -25 5 8 9 7 14 -6 4 -10 3 -20 -1 -23 -4 -3 -14
-18 -22 -33 -12 -23 -16 -25 -28 -12 -17 16 -29 18 -38 4 -3 -5 -11 -7 -18 -4
-7 2 -13 -4 -14 -16 -1 -11 2 -20 8 -20 5 0 9 3 9 8 0 4 12 8 26 9 l27 1 -25
-23 c-22 -20 -25 -35 -19 -92 0 -7 7 -13 15 -13 7 0 19 -7 26 -15 7 -8 16 -13
20 -10 5 3 11 1 15 -5 3 -5 2 -10 -4 -10 -7 0 -7 -8 -2 -22 6 -17 16 -23 40
-23 18 0 37 6 43 13 6 6 17 12 25 12 12 0 11 3 -2 17 -15 15 -14 18 16 44 18
15 36 26 40 24 6 -4 7 4 11 63 2 34 -7 47 -37 52 -17 3 -31 12 -31 20 -1 8 -2
19 -3 24 0 6 -6 5 -12 -1 -15 -15 -39 -5 -39 14 0 8 12 24 26 35 18 14 22 23
14 28 -15 9 26 40 52 40 17 0 22 10 19 37 -1 7 3 13 9 13 6 0 10 25 10 60 0
48 -4 61 -19 70 -13 7 -22 7 -26 0 -12 -19 -45 -11 -45 10 0 11 7 20 15 20 16
0 19 9 9 34 -4 12 -11 13 -31 5 -33 -12 -44 -2 -19 17 14 10 16 14 5 14 -12 1
-12 2 1 9 18 10 80 2 80 -10 0 -5 7 -9 15 -9 8 0 15 7 15 16 0 8 -4 13 -9 10
-12 -8 -41 3 -41 15 0 5 11 9 25 9 15 0 25 6 25 14 0 7 3 27 6 43 4 21 1 35
-11 47 -13 13 -15 20 -7 28 8 8 7 15 -6 25 -16 14 -16 14 1 9 15 -5 17 4 17
87 0 51 -5 98 -10 103 -8 8 -6 25 5 57 10 31 15 81 15 154 0 59 1 254 3 433 3
205 1 330 -6 338 -6 8 -6 16 1 25 6 7 11 64 12 132 2 343 6 501 13 512 5 7 7
42 6 79 -2 58 -4 65 -21 61 -10 -3 -21 -1 -24 4 -3 5 -10 6 -16 3 -7 -4 -8 -2
-4 5 6 9 11 9 24 -1 13 -11 15 -10 9 4 -4 11 1 22 12 30 14 11 37 82 43 135 1
7 5 10 9 8 3 -3 13 3 20 12 20 23 129 73 162 73 15 0 27 5 27 10 0 7 6 7 19 0
27 -14 34 -13 28 5 -4 8 -2 17 3 20 6 4 10 0 10 -8 0 -22 13 -24 154 -26 111
-2 131 1 149 16 11 10 17 12 13 5 -9 -16 22 -27 99 -36 74 -9 137 -31 192 -68
62 -42 143 -148 143 -188 0 -11 7 -20 15 -20 8 0 15 -7 15 -15 0 -8 -4 -15
-10 -15 -5 0 -10 -21 -10 -46 0 -45 1 -46 27 -39 23 5 25 4 14 -9 -8 -9 -19
-16 -26 -16 -17 0 -22 -15 -24 -81 -2 -68 9 -100 42 -118 15 -8 31 -27 36 -43
10 -28 39 -36 34 -9 -5 20 12 12 22 -11 6 -13 19 -24 30 -26 17 -3 17 -1 5 7
-13 9 -13 11 -1 11 11 0 9 4 -5 15 -18 14 -17 14 13 15 17 0 38 -6 45 -12 7
-7 26 -14 42 -15 28 -2 28 -2 11 17 -16 18 -17 20 -2 20 10 0 17 7 17 16 0 9
-5 12 -12 8 -9 -5 -9 -3 1 9 17 21 17 108 0 150 -7 17 -22 39 -34 49 -23 19
-19 27 18 30 30 3 33 8 15 27 -11 11 -10 12 0 6 10 -5 13 0 11 21 -2 16 0 34
4 41 9 14 4 37 -29 151 -22 74 -27 82 -45 77 -21 -7 -59 18 -59 38 0 6 8 3 18
-6 20 -18 42 -22 42 -8 0 15 -94 123 -145 166 -108 92 -249 148 -414 165 -99
11 -141 8 -141 -10 0 -4 -9 -6 -20 -3 -11 3 -17 9 -14 14 9 15 -385 10 -431
-5z m540 -16 c3 -5 -3 -10 -14 -10 -12 0 -21 5 -21 10 0 6 6 10 14 10 8 0 18
-4 21 -10z m65 -31 c0 -16 -5 -20 -27 -17 -14 2 -28 8 -30 15 -4 10 5 14 50
22 4 0 7 -8 7 -20z m-600 -4 c0 -8 -7 -15 -15 -15 -8 0 -15 7 -15 15 0 8 7 15
15 15 8 0 15 -7 15 -15z m666 -77 c3 -5 4 -12 1 -14 -7 -7 -47 15 -47 25 0 11
38 2 46 -11z m-896 -18 c0 -5 -5 -10 -11 -10 -5 0 -7 5 -4 10 3 6 8 10 11 10
2 0 4 -4 4 -10z m638 -5 c-2 -5 -6 -9 -10 -8 -4 2 -5 -4 -2 -12 4 -8 1 -15 -5
-15 -6 0 -11 12 -11 26 0 18 5 24 16 22 8 -2 14 -7 12 -13z m-518 -15 c0 -5
-10 -10 -22 -10 -19 0 -20 2 -8 10 19 13 30 13 30 0z m649 -39 c-26 -22 -49
-27 -49 -11 0 10 61 40 69 34 2 -2 -7 -12 -20 -23z m-639 -27 c0 -2 -7 -4 -15
-4 -8 0 -15 4 -15 10 0 5 7 7 15 4 8 -4 15 -8 15 -10z m426 -11 c-7 -7 -26 7
-26 19 0 6 6 6 15 -2 9 -7 13 -15 11 -17z m555 -46 c-10 -9 -11 -8 -5 6 3 10
9 15 12 12 3 -3 0 -11 -7 -18z m49 -7 c0 -5 -4 -10 -10 -10 -5 0 -10 5 -10 10
0 6 5 10 10 10 6 0 10 -4 10 -10z m-125 -10 c-3 -5 -10 -10 -16 -10 -5 0 -9 5
-9 10 0 6 7 10 16 10 8 0 12 -4 9 -10z m-1045 -50 c0 -5 -8 -10 -17 -10 -15 0
-16 2 -3 10 19 12 20 12 20 0z m1350 -54 c0 -15 -29 -30 -39 -20 -3 3 3 12 13
20 24 17 26 17 26 0z m-1350 -15 c0 -5 -10 -11 -22 -14 -22 -6 -22 -6 -4 8 23
17 26 18 26 6z m35 -80 c-3 -6 -11 -8 -17 -5 -6 4 -5 9 3 15 16 10 23 4 14
-10z m-150 -10 c-3 -6 -11 -8 -17 -5 -6 4 -5 9 3 15 16 10 23 4 14 -10z m185
5 c0 -3 -4 -8 -10 -11 -5 -3 -10 -1 -10 4 0 6 5 11 10 11 6 0 10 -2 10 -4z
m1160 0 c0 -3 -4 -8 -10 -11 -5 -3 -10 -1 -10 4 0 6 5 11 10 11 6 0 10 -2 10
-4z m118 -83 c-2 -19 2 -27 15 -29 28 -4 33 -14 8 -14 -12 0 -31 5 -42 10 -17
10 -18 13 -4 26 8 9 13 20 10 25 -4 5 -1 9 5 9 6 0 10 -12 8 -27z m-1378 7 c0
-5 -5 -10 -11 -10 -5 0 -7 5 -4 10 3 6 8 10 11 10 2 0 4 -4 4 -10z m150 -10
c0 -5 -7 -10 -16 -10 -8 0 -12 5 -9 10 3 6 10 10 16 10 5 0 9 -4 9 -10z m-40
-44 c0 -2 -8 -10 -17 -17 -16 -13 -17 -12 -4 4 13 16 21 21 21 13z m-80 -26
c0 -5 -9 -10 -20 -10 -11 0 -20 5 -20 10 0 6 9 10 20 10 11 0 20 -4 20 -10z
m1260 0 c0 -5 -2 -10 -4 -10 -3 0 -8 5 -11 10 -3 6 -1 10 4 10 6 0 11 -4 11
-10z m-1155 -10 c3 -5 -1 -10 -10 -10 -9 0 -13 5 -10 10 3 6 8 10 10 10 2 0 7
-4 10 -10z m-210 -10 c3 -5 1 -10 -4 -10 -6 0 -11 5 -11 10 0 6 2 10 4 10 3 0
8 -4 11 -10z m45 -244 c0 -2 -7 -7 -16 -10 -8 -3 -12 -2 -9 4 6 10 25 14 25 6z
m128 -148 c-2 -6 -10 -14 -16 -16 -7 -2 -10 2 -6 12 7 18 28 22 22 4z m28 -59
c3 -5 -2 -6 -10 -3 -9 3 -16 1 -16 -5 0 -6 -4 -11 -10 -11 -5 0 -10 9 -10 19
0 14 5 18 20 14 11 -3 23 -9 26 -14z m-86 -30 c0 -5 4 -8 9 -4 10 6 26 -13 18
-21 -7 -8 -47 15 -47 26 0 6 5 10 10 10 6 0 10 -5 10 -11z m58 -143 c-7 -8
-16 -12 -21 -9 -11 7 2 23 19 23 12 0 12 -2 2 -14z m-10 -75 c-7 -11 -16 -17
-20 -14 -10 5 10 33 23 33 5 0 4 -9 -3 -19z m26 -127 c9 -24 7 -44 -5 -44 -5
0 -9 8 -7 18 1 9 -1 23 -5 30 -5 6 -4 12 1 12 6 0 13 -7 16 -16z m-59 -4 c-3
-5 -12 -10 -20 -10 -8 0 -17 5 -20 10 -4 6 5 10 20 10 15 0 24 -4 20 -10z m29
-155 c-4 -8 -9 -15 -13 -15 -4 0 -8 7 -8 15 0 8 6 15 13 15 8 0 11 -6 8 -15z
m-49 -85 c3 -5 1 -10 -4 -10 -6 0 -11 5 -11 10 0 6 2 10 4 10 3 0 8 -4 11 -10z
m30 -85 c0 -5 -10 -11 -22 -13 -16 -2 -23 2 -23 13 0 11 7 15 23 13 12 -2 22
-7 22 -13z m1 -342 c-4 -4 -11 -1 -16 7 -16 25 -11 35 7 17 9 -9 13 -20 9 -24z
m-86 -28 c-7 -8 -17 -12 -23 -8 -6 4 -3 9 9 14 27 11 28 11 14 -6z m90 -185
c0 -17 -2 -19 -14 -8 -14 13 -12 28 5 28 5 0 9 -9 9 -20z m-43 -39 c1 -13 -6
-20 -26 -23 -15 -2 -33 -2 -39 0 -20 6 -13 22 8 22 11 0 23 6 26 14 8 20 29
10 31 -13z m53 -72 c0 -5 -7 -9 -15 -9 -15 0 -20 12 -9 23 8 8 24 -1 24 -14z
m-180 -19 c-24 -15 -37 -11 -16 5 11 8 22 12 25 9 3 -3 -1 -9 -9 -14z m130
-10 c0 -5 -5 -10 -11 -10 -5 0 -7 5 -4 10 3 6 8 10 11 10 2 0 4 -4 4 -10z
m-142 -45 c-2 -5 -11 -10 -20 -10 -14 -1 -15 1 -6 12 12 15 32 13 26 -2z m182
-21 c0 -16 -23 -44 -35 -44 -16 0 -18 9 -9 34 6 15 44 24 44 10z m-210 -164
c0 -5 -2 -10 -4 -10 -3 0 -8 5 -11 10 -3 6 -1 10 4 10 6 0 11 -4 11 -10z m88
-26 c2 -1 -7 -8 -20 -15 -12 -6 -20 -8 -16 -4 4 4 0 14 -10 22 -15 12 -14 13
13 7 17 -4 32 -8 33 -10z m-64 -35 c-10 -16 -23 -9 -21 10 1 15 4 17 14 9 7
-5 10 -14 7 -19z m101 -9 c3 -6 -1 -7 -9 -4 -18 7 -21 14 -7 14 6 0 13 -4 16
-10z m80 -85 c-35 -30 -36 -31 -21 -60 16 -31 15 -42 -4 -30 -6 4 -9 13 -6 21
3 8 -1 14 -8 14 -8 0 -17 7 -20 16 -3 8 -2 12 4 9 6 -3 10 1 10 9 0 8 -4 18
-10 21 -5 3 -10 12 -10 20 0 10 14 14 50 13 l51 -1 -36 -32z m-120 -25 c3 -5
1 -10 -4 -10 -6 0 -11 5 -11 10 0 6 2 10 4 10 3 0 8 -4 11 -10z m128 -10 c-4
-16 -8 -18 -19 -9 -16 13 -10 29 11 29 8 0 11 -7 8 -20z m-91 -63 c-2 -16 3
-29 15 -36 16 -9 16 -12 3 -21 -24 -16 -30 -12 -30 20 0 17 -4 30 -9 30 -5 0
-7 9 -4 20 8 29 29 18 25 -13z m42 -344 c3 -7 0 -13 -7 -14 -7 0 -19 -2 -29
-4 -9 -2 -18 5 -21 14 -3 14 2 18 24 18 15 0 30 -6 33 -14z"/>
<path d="M2265 4813 c-35 -9 -83 -63 -94 -109 -16 -62 -15 -157 2 -148 9 6 9
4 1 -7 -12 -14 -12 -115 1 -1339 5 -459 12 -874 14 -939 1 -11 4 -11 16 -1 8
7 15 9 15 5 0 -4 -7 -13 -16 -19 -13 -10 -15 -35 -13 -172 4 -281 4 -285 -12
-294 -7 -5 -14 -15 -14 -21 0 -7 -6 -14 -14 -17 -9 -3 -12 0 -9 10 4 9 0 15
-8 15 -8 0 -14 -7 -14 -15 0 -9 -6 -12 -16 -8 -9 4 -22 2 -29 -4 -10 -8 -15
-6 -19 8 -7 22 2 52 15 52 4 0 6 -6 3 -14 -3 -7 3 -16 12 -20 22 -9 33 2 14
15 -13 8 -13 10 -1 18 12 8 12 10 0 14 -8 2 -3 2 11 0 14 -3 27 -8 30 -12 6
-10 40 -10 40 -1 0 8 -111 273 -140 335 -10 22 -77 175 -148 340 -72 165 -158
363 -192 440 -34 77 -81 185 -105 240 -62 145 -276 632 -399 908 -58 131 -106
242 -106 246 0 4 -14 36 -31 72 -40 82 -78 166 -115 254 -66 159 -169 188
-294 84 -43 -36 -62 -59 -69 -87 -7 -23 -13 -571 -16 -1480 l-7 -1442 24 -21
23 -21 -22 5 -23 5 -1 -201 c-1 -111 -1 -209 0 -217 9 -73 51 -139 92 -144 13
-2 32 -7 42 -11 45 -19 112 20 140 83 20 46 21 62 24 872 2 454 4 1097 4 1430
0 516 2 601 13 580 8 -14 41 -88 74 -165 72 -167 172 -396 274 -630 41 -93
132 -300 203 -460 168 -384 164 -376 180 -410 116 -261 185 -418 185 -425 0
-5 3 -10 8 -12 4 -2 20 -36 36 -76 17 -43 32 -69 38 -65 7 3 8 1 4 -6 -12 -19
4 -53 21 -47 12 5 14 1 10 -15 -3 -12 1 -35 9 -51 15 -28 16 -29 39 -14 24 16
60 23 40 8 -5 -4 -11 -20 -13 -36 -3 -26 -1 -28 12 -17 13 11 16 11 17 -3 2
-29 4 -34 11 -42 4 -4 14 -2 22 5 11 9 15 8 20 -4 4 -12 10 -13 23 -6 10 5 31
7 46 4 36 -7 34 3 -3 22 -17 9 -28 20 -25 25 8 13 -25 42 -41 36 -26 -10 -14
9 13 21 28 14 49 1 36 -22 -4 -5 -2 -6 2 -2 5 4 15 -3 22 -15 l14 -23 -7 25
-7 25 24 -26 c27 -28 35 -69 16 -81 -9 -6 -9 -8 0 -8 7 0 11 -26 12 -76 1 -67
-1 -75 -14 -64 -19 15 -30 7 -21 -15 3 -9 11 -13 17 -9 8 4 9 -1 4 -16 -5 -15
-4 -20 4 -16 8 5 11 -23 10 -103 -1 -65 -6 -109 -12 -108 -5 1 -12 -4 -15 -12
-3 -10 0 -12 12 -8 9 4 16 2 16 -3 0 -6 -5 -10 -12 -10 -7 0 12 -16 42 -35 56
-36 115 -46 137 -24 8 8 13 7 18 -2 6 -8 4 -10 -5 -4 -8 5 -11 4 -6 -3 7 -12
36 -5 36 8 0 5 -5 12 -10 15 -8 5 -7 11 1 21 6 7 15 11 20 9 9 -6 10 3 14 95
3 92 2 90 30 90 14 0 25 4 25 9 0 10 -40 8 -57 -2 -6 -4 -22 20 -38 56 -15 34
-38 85 -51 112 -22 46 -22 51 -7 63 21 15 27 46 7 38 -8 -3 -14 -1 -14 4 0 6
5 10 12 10 6 0 8 3 5 7 -4 3 -15 -1 -26 -11 -18 -16 -19 -15 -35 18 -18 38
-21 76 -6 76 6 0 10 -3 10 -8 0 -4 13 -13 29 -20 19 -9 28 -18 24 -28 -3 -8 0
-14 6 -14 6 0 11 9 11 20 0 11 7 20 15 20 8 0 15 -7 15 -15 0 -9 10 -20 23
-25 17 -7 18 -9 5 -9 -22 -1 -23 -17 -2 -25 26 -10 36 4 20 29 -11 17 -12 25
-3 34 8 8 7 11 -6 11 -19 0 -22 13 -7 41 8 15 7 23 -3 34 -8 8 -18 11 -22 7
-5 -4 -5 4 -2 17 3 14 1 31 -6 39 -10 13 -8 14 13 7 14 -4 30 -14 37 -22 10
-13 14 -13 33 5 l22 20 -21 21 c-28 28 -28 61 -1 54 11 -3 20 0 21 6 4 44 1
66 -9 63 -7 -1 -12 7 -12 18 0 11 5 20 10 20 6 0 10 25 10 55 0 34 -4 55 -11
55 -8 0 -8 4 1 14 9 11 10 209 5 853 -4 461 -9 841 -11 845 -3 4 -4 193 -5
420 0 399 -5 488 -30 472 -6 -3 -9 0 -8 7 11 58 -79 110 -156 92z m26 -566
c-15 -15 -21 -5 -14 22 5 21 7 21 16 6 6 -11 5 -21 -2 -28z m165 -2194 c-7
-17 -8 -17 -17 0 -12 21 -2 44 13 29 6 -6 8 -19 4 -29z m-129 -18 c-15 -15
-38 -8 -31 10 3 7 14 11 24 8 15 -4 16 -8 7 -18z m-358 -7 c7 -18 5 -25 -10
-32 -10 -5 -19 -15 -19 -23 0 -11 -4 -11 -20 -1 -25 16 -25 22 3 52 28 31 36
31 46 4z m46 -88 c3 -5 1 -10 -4 -10 -6 0 -11 5 -11 10 0 6 2 10 4 10 3 0 8
-4 11 -10z m111 -23 c4 -4 0 -7 -10 -7 -9 0 -20 -8 -24 -18 -6 -15 -10 -16
-31 -6 l-23 12 28 14 c30 15 49 17 60 5z m123 -43 c-14 -18 -24 -11 -15 11 3
9 11 13 16 10 8 -5 7 -11 -1 -21z m81 5 c0 -12 -47 -12 -54 0 -3 4 -3 10 0 13
7 8 54 -3 54 -13z m-296 -28 c9 -14 -4 -41 -20 -41 -8 0 -14 8 -14 18 0 29 22
43 34 23z m222 -18 c19 -25 18 -28 -12 -42 -32 -14 -39 -9 -24 18 6 12 8 26 5
31 -11 18 17 11 31 -7z m47 -3 c-5 -21 11 -28 22 -10 3 6 12 10 20 10 18 0 15
-42 -5 -57 -12 -9 -17 -7 -26 9 -11 20 -11 20 -16 1 -3 -11 1 -28 8 -38 8 -10
14 -13 14 -7 0 13 43 12 56 0 11 -12 -6 -46 -26 -51 -11 -3 -18 -1 -14 4 3 5
2 14 -2 20 -4 8 -9 7 -15 -2 -6 -10 -9 -11 -9 -1 0 7 -13 12 -30 12 -17 0 -30
-5 -30 -12 -1 -7 -7 -2 -15 12 -18 32 -18 40 0 40 8 0 15 4 15 9 0 5 9 11 20
14 13 3 20 14 20 29 0 21 7 38 16 38 1 0 0 -9 -3 -20z m-313 -60 c0 -5 -5 -10
-11 -10 -5 0 -7 5 -4 10 3 6 8 10 11 10 2 0 4 -4 4 -10z m197 -36 c-3 -3 -12
-4 -19 -1 -8 3 -5 6 6 6 11 1 17 -2 13 -5z m-100 -101 c-8 -7 -37 9 -31 19 3
5 12 4 20 -3 8 -6 13 -14 11 -16z m-1407 -283 c0 -5 -5 -10 -11 -10 -5 0 -7 5
-4 10 3 6 8 10 11 10 2 0 4 -4 4 -10z m1720 -100 c0 -5 -4 -10 -10 -10 -5 0
-10 5 -10 10 0 6 5 10 10 10 6 0 10 -4 10 -10z"/>
<path d="M1930 2008 c0 -4 7 -8 15 -8 8 0 15 4 15 8 0 5 -7 9 -15 9 -8 0 -15
-4 -15 -9z"/>
<path d="M4955 4220 c3 -5 8 -10 11 -10 2 0 4 5 4 10 0 6 -5 10 -11 10 -5 0
-7 -4 -4 -10z"/>
<path d="M4720 3940 c-14 -10 -22 -21 -19 -24 3 -3 16 5 29 19 28 30 24 32
-10 5z"/>
<path d="M4773 3922 c-13 -2 -23 -8 -23 -13 0 -8 47 -3 58 6 8 6 -15 11 -35 7z"/>
<path d="M4870 3910 c-13 -9 -13 -11 0 -20 10 -6 16 -6 18 0 2 6 9 7 15 3 7
-4 6 1 -2 10 -7 9 -14 17 -15 17 0 0 -8 -5 -16 -10z"/>
<path d="M4761 3878 c-11 -18 -10 -19 8 -13 31 10 42 -2 30 -32 -14 -37 4 -53
32 -27 12 10 23 18 25 17 20 -13 10 3 -17 27 -53 48 -63 51 -78 28z"/>
<path d="M4970 3861 c0 -6 4 -13 10 -16 6 -3 7 1 4 9 -7 18 -14 21 -14 7z"/>
<path d="M4928 3825 c-4 -16 -1 -25 8 -25 7 0 14 -5 16 -12 3 -7 11 -9 24 -3
17 7 17 8 2 12 -10 3 -18 9 -18 15 0 5 7 8 15 4 8 -3 15 -1 15 4 0 6 -9 10
-20 10 -11 0 -20 5 -20 10 0 21 -18 9 -22 -15z"/>
<path d="M4880 3807 c0 -9 -4 -17 -10 -17 -5 0 -6 -8 -3 -17 4 -9 8 -12 10 -6
2 5 15 8 29 5 24 -4 24 -6 9 -28 -15 -23 -14 -24 5 -24 11 0 20 -4 20 -9 0
-15 -74 1 -87 18 -6 9 -9 19 -7 23 10 16 -71 -2 -83 -18 -9 -13 -15 -13 -33
-4 -12 6 -24 9 -28 6 -3 -3 -1 -6 5 -6 6 0 9 -12 7 -26 -1 -16 2 -24 9 -21 7
2 11 11 9 19 -1 9 3 16 10 15 33 -1 49 4 43 13 -4 6 2 9 13 7 22 -3 52 -30 52
-46 0 -6 9 -11 20 -11 29 0 25 -13 -11 -34 -29 -17 -31 -17 -50 0 -15 13 -22
15 -31 6 -9 -9 -5 -14 13 -20 l24 -9 -23 -7 c-16 -5 -21 -13 -18 -23 4 -9 1
-22 -5 -30 -14 -16 -12 -18 18 -27 21 -7 21 -5 13 25 -7 24 -6 35 3 41 6 4 13
3 15 -2 2 -5 17 6 33 23 23 24 32 28 38 18 5 -8 14 -11 19 -7 7 4 9 -1 7 -14
-3 -14 6 -27 25 -41 19 -14 27 -28 24 -42 -5 -28 -11 -32 -28 -18 -11 9 -17 9
-27 -1 -20 -19 -129 -20 -129 -2 0 8 -9 14 -19 14 -16 0 -18 -5 -12 -27 4 -16
14 -28 22 -28 8 0 20 -7 26 -15 11 -13 14 -13 22 -1 5 7 26 16 47 18 70 8 75
9 93 29 10 10 21 34 24 51 5 26 2 35 -13 43 -25 14 -25 27 0 35 21 7 25 53 5
67 -6 5 -5 8 3 8 7 0 10 5 7 10 -3 6 -15 10 -26 10 -14 0 -19 7 -19 25 0 15
-6 25 -14 25 -8 0 -22 10 -30 22 -13 18 -16 19 -16 5z"/>
<path d="M4417 2723 c-12 -12 -7 -22 8 -17 8 4 15 10 15 15 0 11 -14 12 -23 2z"/>
<path d="M4484 2719 c-3 -6 -2 -15 2 -19 12 -12 38 5 30 19 -9 14 -23 14 -32
0z"/>
<path d="M4692 2721 c-11 -7 -10 -9 3 -14 9 -4 14 -3 10 2 -3 5 1 12 7 14 7 3
9 6 3 6 -5 0 -16 -3 -23 -8z"/>
<path d="M4750 2711 c-20 -21 -22 -81 -4 -81 8 0 14 5 14 10 0 6 -5 10 -12 10
-9 0 -9 3 -1 11 6 6 9 18 6 25 -3 8 1 14 11 14 9 0 16 4 16 9 0 5 8 12 18 14
11 3 8 5 -8 5 -14 0 -32 -7 -40 -17z"/>
<path d="M4246 2711 c-3 -5 1 -11 9 -15 9 -3 15 0 15 9 0 16 -16 20 -24 6z"/>
<path d="M4306 2703 c-6 -14 -5 -15 5 -6 7 7 10 15 7 18 -3 3 -9 -2 -12 -12z"/>
<path d="M4376 2684 c-3 -9 -1 -23 5 -32 9 -15 10 -14 6 5 -3 12 0 24 6 26 8
2 8 5 0 10 -6 4 -14 0 -17 -9z"/>
<path d="M4447 2682 c-21 -23 -21 -32 0 -32 9 0 13 3 10 7 -4 3 -2 12 5 20 17
21 3 25 -15 5z"/>
<path d="M4205 2680 c3 -5 8 -10 11 -10 2 0 4 5 4 10 0 6 -5 10 -11 10 -5 0
-7 -4 -4 -10z"/>
<path d="M4838 2671 c-15 -10 -43 -34 -63 -54 -29 -30 -33 -38 -21 -49 7 -8
17 -34 21 -59 8 -48 18 -59 53 -59 23 0 82 54 82 75 0 5 7 2 15 -8 10 -15 18
-17 32 -8 10 6 14 11 8 11 -5 0 10 18 34 40 29 26 41 45 37 56 -3 8 -11 12
-17 9 -6 -4 -8 -13 -5 -21 3 -8 0 -11 -10 -7 -10 4 -12 0 -8 -11 4 -9 3 -16
-2 -15 -22 4 -34 -2 -34 -16 0 -8 -8 -15 -18 -15 -15 0 -18 6 -14 30 4 25 7
28 23 19 15 -8 21 -6 26 8 4 10 11 21 17 25 6 4 1 8 -13 8 -17 0 -22 -4 -17
-16 4 -11 1 -14 -11 -12 -10 2 -19 12 -21 22 -3 11 0 16 7 12 23 -14 10 13
-15 33 -32 25 -50 25 -86 2z"/>
<path d="M4680 2667 c0 -8 7 -17 15 -21 8 -3 15 -2 15 3 0 5 -7 14 -15 21 -12
10 -15 10 -15 -3z"/>
<path d="M4141 2642 c-14 -26 -14 -42 -1 -42 6 0 10 7 10 15 0 20 20 19 36 -2
9 -11 17 -14 21 -8 5 6 19 10 33 10 29 0 35 28 8 33 -10 2 -18 -1 -18 -6 0
-13 -61 -7 -70 8 -6 10 -11 8 -19 -8z"/>
<path d="M4270 2650 c0 -5 5 -10 10 -10 6 0 10 5 10 10 0 6 -4 10 -10 10 -5 0
-10 -4 -10 -10z"/>
<path d="M4300 2628 c-24 -26 -25 -37 -3 -53 11 -8 13 -14 5 -19 -7 -4 -12 -2
-12 4 0 6 -4 9 -9 5 -5 -3 -17 3 -27 12 -17 17 -18 17 -11 -1 6 -14 4 -17 -9
-12 -11 4 -14 1 -12 -12 5 -25 84 -28 98 -3 5 10 7 21 4 24 -4 3 3 19 15 35
31 44 -1 61 -39 20z"/>
<path d="M4580 2640 c0 -5 5 -10 11 -10 5 0 7 5 4 10 -3 6 -8 10 -11 10 -2 0
-4 -4 -4 -10z"/>
<path d="M4437 2633 c-10 -9 -9 -23 1 -23 5 0 9 7 9 15 0 17 -1 18 -10 8z"/>
<path d="M4497 2620 c-3 -11 -1 -20 4 -20 5 0 9 9 9 20 0 11 -2 20 -4 20 -2 0
-6 -9 -9 -20z"/>
<path d="M4542 2614 c-14 -16 -5 -18 17 -5 7 5 9 11 5 14 -5 3 -15 -1 -22 -9z"/>
<path d="M4372 2582 c-6 -14 -9 -28 -6 -31 4 -3 9 0 11 7 3 6 9 12 14 12 11 0
0 -30 -19 -53 -24 -27 -2 -40 31 -18 23 15 26 20 13 30 -7 6 -12 20 -9 31 3
11 -1 26 -9 33 -12 12 -16 11 -26 -11z"/>
<path d="M4456 2564 c-8 -21 -3 -26 31 -29 15 -1 39 -7 53 -12 14 -6 29 -8 33
-6 16 10 -22 37 -55 39 -18 1 -34 7 -36 13 -5 16 -19 13 -26 -5z"/>
<path d="M4135 2560 c-8 -13 3 -50 15 -50 5 0 12 5 15 10 3 6 1 10 -6 10 -10
0 -10 3 -1 12 7 7 12 16 12 20 0 12 -28 10 -35 -2z"/>
<path d="M4585 2560 c3 -5 11 -10 16 -10 6 0 7 5 4 10 -3 6 -11 10 -16 10 -6
0 -7 -4 -4 -10z"/>
<path d="M4230 2509 c0 -5 5 -7 10 -4 6 3 10 8 10 11 0 2 -4 4 -10 4 -5 0 -10
-5 -10 -11z"/>
<path d="M4170 2502 c0 -19 12 -42 22 -42 14 0 5 43 -9 48 -7 2 -13 -1 -13 -6z"/>
<path d="M4980 2500 c-7 -31 -6 -39 6 -44 18 -7 44 3 44 17 0 7 -4 7 -12 -1
-10 -10 -15 -7 -25 10 -7 13 -13 21 -13 18z"/>
<path d="M4585 2480 c-4 -7 -2 -17 4 -23 8 -8 11 -8 11 2 0 9 9 12 25 8 16 -3
24 0 22 7 -5 15 -53 20 -62 6z"/>
<path d="M4321 2466 c-9 -11 -6 -15 13 -18 22 -4 24 -3 15 13 -12 23 -13 23
-28 5z"/>
<path d="M4440 2465 c-7 -9 -8 -15 -2 -15 5 0 12 7 16 15 3 8 4 15 2 15 -2 0
-9 -7 -16 -15z"/>
<path d="M5050 2468 c0 -11 38 -10 44 1 3 5 -5 8 -19 7 -14 0 -25 -4 -25 -8z"/>
<path d="M4875 2440 c-8 -13 -1 -24 14 -19 6 3 7 10 2 18 -6 10 -10 10 -16 1z"/>
<path d="M5072 2432 c-19 -13 -25 -13 -32 -2 -4 7 -13 10 -19 6 -7 -5 -6 -14
4 -30 8 -12 12 -25 9 -29 -3 -3 2 -3 13 -1 20 6 56 50 51 63 -2 5 -13 2 -26
-7z"/>
<path d="M5033 2330 c-1 -17 1 -18 17 -8 14 9 16 14 7 20 -18 12 -23 10 -24
-12z"/>
<path d="M4970 2325 c0 -9 -10 -20 -22 -25 -14 -5 -17 -9 -8 -9 9 -1 26 7 39
16 14 9 21 11 17 5 -4 -7 -2 -12 3 -12 14 0 14 13 -1 28 -16 16 -28 15 -28 -3z"/>
<path d="M5090 2319 c0 -5 5 -7 10 -4 6 3 10 8 10 11 0 2 -4 4 -10 4 -5 0 -10
-5 -10 -11z"/>
<path d="M5000 2270 c0 -5 4 -10 9 -10 6 0 13 5 16 10 3 6 -1 10 -9 10 -9 0
-16 -4 -16 -10z"/>
<path d="M4955 2230 c3 -5 8 -10 11 -10 2 0 4 5 4 10 0 6 -5 10 -11 10 -5 0
-7 -4 -4 -10z"/>
<path d="M4941 2194 c0 -11 3 -14 6 -6 3 7 2 16 -1 19 -3 4 -6 -2 -5 -13z"/>
<path d="M5080 2200 c0 -5 5 -10 10 -10 6 0 10 5 10 10 0 6 -4 10 -10 10 -5 0
-10 -4 -10 -10z"/>
<path d="M5026 2182 c-3 -3 -6 -15 -6 -26 1 -19 2 -19 11 -3 5 9 17 17 26 17
9 0 13 3 9 7 -9 9 -33 12 -40 5z"/>
<path d="M4965 2170 c-3 -5 3 -10 14 -10 12 0 21 5 21 10 0 6 -6 10 -14 10 -8
0 -18 -4 -21 -10z"/>
<path d="M5096 2172 c-3 -6 -1 -14 5 -17 14 -9 20 -2 10 14 -6 8 -11 9 -15 3z"/>
<path d="M5043 2145 c-12 -8 -28 -12 -36 -9 -10 4 -15 0 -13 -10 3 -20 16 -33
16 -16 0 11 3 11 12 2 10 -10 10 -15 -1 -22 -16 -9 -24 -40 -11 -40 5 0 11 6
13 13 4 7 6 6 6 -5 1 -9 -5 -19 -11 -22 -7 -3 2 -4 21 -3 23 2 35 9 37 20 1 9
-2 17 -8 17 -13 0 -1 52 14 61 11 7 3 29 -10 29 -4 0 -17 -7 -29 -15z"/>
<path d="M3587 2143 c-4 -3 -7 -11 -7 -17 0 -6 5 -5 12 2 6 6 9 14 7 17 -3 3
-9 2 -12 -2z"/>
<path d="M4934 2108 c-3 -4 4 -8 15 -8 11 0 22 4 26 9 3 6 -4 9 -16 8 -11 -1
-23 -5 -25 -9z"/>
<path d="M4860 2096 c0 -2 7 -6 15 -10 8 -3 15 -1 15 4 0 6 -7 10 -15 10 -8 0
-15 -2 -15 -4z"/>
<path d="M5109 2078 c-6 -21 -5 -38 2 -38 5 0 9 9 9 20 0 16 -7 28 -11 18z"/>
<path d="M4888 2053 c7 -3 16 -2 19 1 4 3 -2 6 -13 5 -11 0 -14 -3 -6 -6z"/>
<path d="M5076 1999 c-15 -14 -16 -19 -5 -19 10 -1 9 -4 -4 -14 -12 -9 -14
-16 -8 -21 6 -3 11 -4 11 -1 0 3 11 1 24 -4 29 -10 39 4 24 33 -5 10 -7 25 -4
33 8 20 -16 16 -38 -7z"/>
<path d="M5017 1940 c-3 -12 0 -20 7 -20 18 0 25 10 19 26 -7 20 -20 17 -26
-6z"/>
<path d="M5070 1880 c0 -5 5 -10 11 -10 5 0 7 5 4 10 -3 6 -8 10 -11 10 -2 0
-4 -4 -4 -10z"/>
<path d="M3340 1829 c0 -13 -5 -19 -13 -16 -8 3 -14 -4 -15 -17 -1 -20 3 -22
43 -22 44 1 61 18 30 30 -8 3 -15 12 -15 20 0 7 -7 16 -15 20 -10 4 -15 -1
-15 -15z"/>
<path d="M5067 1816 c-3 -8 -1 -16 5 -18 7 -3 9 -12 5 -22 -5 -12 -13 -16 -25
-11 -9 4 -26 10 -37 13 -17 5 -18 3 -7 -10 10 -13 10 -17 -3 -22 -8 -3 -15
-10 -15 -15 0 -6 6 -8 14 -5 7 3 21 -3 31 -12 11 -12 19 -14 24 -6 4 7 12 8
21 2 13 -8 11 -12 -8 -26 -18 -12 -21 -19 -11 -30 9 -11 8 -14 -5 -14 -9 0
-16 -8 -16 -21 0 -11 -4 -17 -10 -14 -5 3 -10 1 -10 -5 0 -13 52 -2 62 14 4 6
8 7 8 1 0 -5 5 -4 11 2 6 6 12 35 14 64 2 30 7 71 11 93 5 28 3 40 -7 47 -21
13 -46 11 -52 -5z m38 -56 c3 -5 1 -10 -5 -10 -6 0 -8 -5 -4 -12 5 -9 3 -9 -9
1 -9 7 -14 17 -11 22 7 12 21 11 29 -1z"/>
<path d="M4888 1803 c-21 -5 -23 -19 -5 -29 6 -4 9 -4 5 1 -4 4 0 14 10 21 18
14 17 14 -10 7z"/>
<path d="M4930 1795 c0 -9 7 -18 15 -22 24 -9 27 1 5 20 -17 14 -20 15 -20 2z"/>
<path d="M2448 1775 c-19 -16 -24 -26 -16 -31 6 -4 14 -2 16 4 2 7 10 12 18
12 8 0 14 9 14 20 0 25 1 25 -32 -5z"/>
<path d="M4885 1729 c2 -20 -1 -32 -11 -36 -15 -6 -19 -23 -6 -23 5 0 20 9 33
21 18 16 21 22 10 29 -8 4 -11 15 -8 24 4 10 1 16 -8 16 -10 0 -13 -9 -10 -31z"/>
<path d="M2437 1697 c-7 -18 28 -63 37 -48 4 6 2 11 -3 11 -6 0 -11 9 -11 19
0 24 -16 36 -23 18z"/>
<path d="M4975 1700 c-3 -5 -1 -10 4 -10 6 0 11 5 11 10 0 6 -2 10 -4 10 -3 0
-8 -4 -11 -10z"/>
<path d="M5020 1690 c0 -5 5 -10 11 -10 5 0 7 5 4 10 -3 6 -8 10 -11 10 -2 0
-4 -4 -4 -10z"/>
<path d="M4945 1670 c-5 -9 -4 -15 3 -18 8 -2 2 -12 -13 -24 -34 -26 -31 -35
9 -30 18 2 37 -1 40 -7 4 -7 -1 -11 -14 -11 -11 0 -23 -7 -26 -15 -4 -8 -10
-12 -15 -9 -5 3 -6 -1 -3 -9 3 -9 13 -13 24 -10 11 3 16 11 13 19 -3 8 1 14 8
14 18 -1 49 -24 49 -37 0 -6 13 -10 30 -9 16 1 30 2 30 4 0 11 -40 43 -48 38
-14 -8 -35 21 -29 39 7 17 -9 30 -18 15 -3 -5 -14 -10 -23 -9 -16 0 -16 1 0 7
14 6 14 11 4 37 -9 22 -14 26 -21 15z"/>
<path d="M1940 1660 c0 -5 5 -10 11 -10 5 0 7 5 4 10 -3 6 -8 10 -11 10 -2 0
-4 -4 -4 -10z"/>
<path d="M1965 1629 c-9 -14 14 -69 30 -69 7 0 24 -11 39 -25 25 -23 26 -23
26 -4 0 12 -4 17 -11 14 -6 -4 -9 -1 -7 7 2 8 -12 27 -30 42 -17 15 -30 32
-26 37 3 5 1 9 -5 9 -5 0 -13 -5 -16 -11z"/>
<path d="M4880 1631 c0 -6 4 -13 10 -16 6 -3 7 1 4 9 -7 18 -14 21 -14 7z"/>
<path d="M4816 1595 c-6 -16 9 -29 24 -20 6 3 10 1 10 -4 0 -6 4 -11 10 -11
14 0 2 24 -19 37 -15 10 -20 9 -25 -2z"/>
<path d="M3560 1590 c0 -5 5 -10 10 -10 6 0 10 5 10 10 0 6 -4 10 -10 10 -5 0
-10 -4 -10 -10z"/>
<path d="M2375 1570 c-3 -5 -1 -10 4 -10 6 0 11 5 11 10 0 6 -2 10 -4 10 -3 0
-8 -4 -11 -10z"/>
<path d="M3658 1568 c-2 -7 6 -24 19 -37 27 -28 29 -22 8 19 -17 33 -21 36
-27 18z"/>
<path d="M2447 1553 c-11 -11 -8 -21 9 -27 13 -5 14 -4 6 7 -7 8 -9 17 -5 20
3 4 4 7 1 7 -2 0 -8 -3 -11 -7z"/>
<path d="M3550 1552 c0 -5 11 -14 25 -20 29 -13 33 -5 8 14 -21 15 -33 18 -33
6z"/>
<path d="M4875 1550 c-3 -5 1 -10 10 -10 9 0 13 5 10 10 -3 6 -8 10 -10 10 -2
0 -7 -4 -10 -10z"/>
<path d="M4820 1535 c-7 -9 -8 -15 -2 -15 5 0 12 7 16 15 3 8 4 15 2 15 -2 0
-9 -7 -16 -15z"/>
<path d="M2356 1531 c-8 -12 4 -41 16 -41 6 0 7 7 4 16 -4 12 -2 15 9 10 22
-8 19 1 -4 14 -12 6 -22 6 -25 1z"/>
<path d="M2126 1514 c-5 -12 -2 -15 10 -10 8 3 18 6 20 6 3 0 2 5 -1 10 -9 15
-22 12 -29 -6z"/>
<path d="M4990 1515 c-8 -9 -15 -25 -17 -35 -2 -17 1 -18 27 -8 21 7 28 14 22
22 -5 6 -11 17 -14 25 -3 10 -7 9 -18 -4z"/>
<path d="M2061 1490 c-11 -33 -37 -42 -28 -10 3 11 1 18 -4 14 -14 -8 -11 -31
8 -50 9 -9 18 -26 18 -37 1 -12 7 -23 13 -25 7 -2 12 -10 12 -18 0 -9 4 -12
10 -9 6 4 3 16 -7 31 -15 24 -15 26 18 60 23 24 28 33 15 28 -16 -6 -18 -4
-12 12 6 15 5 17 -5 7 -7 -7 -17 -13 -23 -13 -6 0 -5 5 2 12 14 14 16 28 3 28
-5 0 -14 -13 -20 -30z m34 -30 c-3 -5 -12 -10 -18 -10 -7 0 -6 4 3 10 19 12
23 12 15 0z"/>
<path d="M4870 1497 c0 -7 6 -22 14 -32 7 -10 11 -27 8 -38 -3 -14 -1 -18 6
-13 17 10 15 35 -4 53 -11 12 -12 18 -4 23 8 5 7 9 -4 13 -10 4 -16 1 -16 -6z"/>
<path d="M2425 1489 c-11 -16 -1 -19 13 -3 7 8 8 14 3 14 -5 0 -13 -5 -16 -11z"/>
<path d="M3390 1493 c0 -5 13 -16 29 -25 24 -13 29 -14 24 -2 -8 22 -53 44
-53 27z"/>
<path d="M3495 1489 c4 -6 9 -8 12 -5 3 3 12 -2 20 -10 9 -8 18 -13 20 -10 3
3 -2 12 -10 21 -17 17 -52 21 -42 4z"/>
<path d="M5067 1493 c-4 -3 -7 -11 -7 -17 0 -6 5 -5 12 2 6 6 9 14 7 17 -3 3
-9 2 -12 -2z"/>
<path d="M2375 1460 c3 -5 10 -10 16 -10 5 0 9 5 9 10 0 6 -7 10 -16 10 -8 0
-12 -4 -9 -10z"/>
<path d="M4820 1460 c0 -5 -6 -10 -14 -10 -25 0 -26 -16 -1 -18 15 -1 24 5 28
18 3 11 1 20 -4 20 -5 0 -9 -4 -9 -10z"/>
<path d="M3665 1440 c3 -5 8 -10 11 -10 2 0 4 5 4 10 0 6 -5 10 -11 10 -5 0
-7 -4 -4 -10z"/>
<path d="M5003 1435 c-7 -7 -8 -17 -2 -26 13 -20 11 -37 -3 -35 -21 2 -21 -18
1 -32 18 -12 21 -11 35 17 9 16 13 38 9 47 -5 12 -3 15 6 9 9 -5 12 -2 9 11
-4 22 -38 27 -55 9z"/>
<path d="M2101 1426 c-9 -11 -5 -16 18 -24 25 -9 29 -15 27 -44 -1 -25 -6 -33
-20 -33 -11 0 -21 -5 -23 -12 -6 -18 37 -11 47 7 8 14 13 53 11 76 -1 7 -12
19 -25 27 -20 14 -26 14 -35 3z"/>
<path d="M2417 1434 c7 -3 9 -12 6 -20 -7 -19 21 -18 37 1 7 8 9 15 4 16 -5 0
-20 2 -34 4 -14 2 -20 1 -13 -1z"/>
<path d="M4756 1422 c-4 -3 2 -14 11 -25 13 -15 14 -18 3 -12 -13 8 -13 7 -1
-8 16 -21 22 -17 25 16 2 18 -3 27 -15 30 -10 3 -20 2 -23 -1z"/>
<path d="M4919 1418 c-1 -7 -1 -16 0 -20 0 -5 -11 -8 -25 -8 -20 0 -25 4 -20
17 6 15 4 15 -14 -2 -24 -22 -26 -41 -4 -49 9 -4 13 -2 8 5 -4 8 -1 8 14 0 11
-6 28 -8 36 -5 11 4 16 0 16 -12 0 -16 2 -17 10 -4 6 10 6 16 0 18 -6 2 -10
10 -10 18 0 9 5 12 11 8 7 -4 9 2 7 17 -3 25 -27 39 -29 17z"/>
<path d="M3635 1410 c-4 -6 3 -10 14 -10 25 0 27 6 6 13 -8 4 -17 2 -20 -3z"/>
<path d="M3527 1403 c-4 -3 -7 -13 -7 -21 0 -12 3 -12 15 -2 8 7 15 16 15 21
0 11 -14 12 -23 2z"/>
<path d="M3576 1381 c-3 -5 1 -11 9 -15 8 -3 15 -1 15 4 0 13 -18 22 -24 11z"/>
<path d="M3650 1380 c0 -5 5 -10 10 -10 6 0 10 5 10 10 0 6 -4 10 -10 10 -5 0
-10 -4 -10 -10z"/>
<path d="M3767 1360 c-4 -15 0 -20 15 -20 10 0 16 5 13 10 -7 11 8 14 18 3 4
-3 -1 -12 -11 -19 -11 -9 -12 -13 -4 -14 10 0 10 -5 2 -22 -10 -21 -9 -21 9 2
18 22 20 23 27 7 5 -13 10 -15 19 -7 9 8 14 7 18 -2 3 -7 6 -3 6 10 1 12 6 22
12 22 5 0 7 5 4 10 -3 6 -17 7 -31 4 -18 -5 -31 -1 -45 15 -25 26 -45 27 -52
1z"/>
<path d="M3706 1362 c-3 -5 -1 -14 3 -20 6 -10 10 -10 20 1 9 12 8 16 -3 20
-9 4 -17 3 -20 -1z"/>
<path d="M3655 1350 c3 -5 13 -10 21 -10 8 0 12 5 9 10 -3 6 -13 10 -21 10 -8
0 -12 -4 -9 -10z"/>
<path d="M4600 1340 c0 -13 28 -25 38 -16 3 4 0 11 -8 16 -20 13 -30 12 -30 0z"/>
<path d="M4657 1333 c-4 -3 -7 -11 -7 -17 0 -6 4 -6 11 1 6 6 18 9 25 6 19 -7
57 -71 49 -83 -3 -6 4 -11 17 -11 18 -1 19 -2 5 -6 -14 -4 -16 -8 -6 -19 8
-10 8 -14 0 -14 -15 0 -42 56 -35 74 4 10 0 14 -15 13 -15 -1 -17 -4 -9 -14 7
-9 6 -14 -6 -19 -23 -9 -20 -23 9 -34 15 -6 25 -17 25 -29 0 -11 6 -22 13 -24
6 -3 -5 -6 -27 -6 -33 -1 -37 -3 -26 -16 9 -11 16 -12 26 -4 10 8 12 6 9 -11
-3 -14 0 -20 8 -17 7 2 11 11 9 20 -2 13 4 15 31 10 43 -7 58 19 28 51 -13 15
-18 30 -14 49 4 18 1 27 -8 27 -7 0 -3 11 12 27 18 19 19 25 7 20 -10 -3 -20
-2 -22 2 -3 5 -16 6 -29 4 -14 -3 -29 2 -36 11 -14 17 -33 21 -44 9z"/>
<path d="M3500 1320 c0 -5 5 -10 10 -10 6 0 10 5 10 10 0 6 -4 10 -10 10 -5 0
-10 -4 -10 -10z"/>
<path d="M4869 1325 c-1 -3 -3 -9 -4 -15 -1 -5 -4 -13 -5 -17 -3 -12 1 -66 6
-85 7 -23 33 -23 49 -1 15 20 9 43 -10 43 -12 0 -30 29 -22 36 8 8 46 -10 40
-19 -4 -6 0 -8 10 -4 11 4 14 2 10 -9 -3 -8 1 -14 10 -14 12 0 27 19 27 36 0
2 -12 4 -26 4 -18 0 -28 6 -31 21 -4 14 -12 19 -24 16 -11 -3 -17 -1 -13 4 3
5 0 9 -5 9 -6 0 -12 -2 -12 -5z"/>
<path d="M4970 1319 c0 -5 5 -7 10 -4 6 3 10 8 10 11 0 2 -4 4 -10 4 -5 0 -10
-5 -10 -11z"/>
<path d="M3754 1290 c0 -20 7 -25 19 -14 7 7 -2 34 -12 34 -4 0 -7 -9 -7 -20z"/>
<path d="M2430 1293 c0 -15 18 -35 23 -27 3 5 -1 15 -9 22 -8 7 -14 9 -14 5z"/>
<path d="M4618 1279 c-17 -18 -17 -19 2 -19 11 0 20 2 20 4 0 2 3 11 6 20 8
21 -7 19 -28 -5z"/>
<path d="M2132 1270 c-8 -13 -9 -27 -4 -36 13 -24 35 7 24 35 -7 21 -7 21 -20
1z"/>
<path d="M4805 1230 c3 -5 8 -10 11 -10 2 0 4 5 4 10 0 6 -5 10 -11 10 -5 0
-7 -4 -4 -10z"/>
<path d="M4225 1220 c-3 -6 1 -7 9 -4 18 7 21 14 7 14 -6 0 -13 -4 -16 -10z"/>
<path d="M4540 1221 c0 -6 -7 -11 -15 -11 -16 0 -19 -9 -9 -34 7 -17 34 -22
34 -6 0 6 -5 10 -11 10 -6 0 -9 6 -6 13 2 6 10 11 16 10 14 -4 15 14 1 22 -5
3 -10 1 -10 -4z"/>
<path d="M2150 1204 c0 -8 5 -12 10 -9 6 3 10 10 10 16 0 5 -4 9 -10 9 -5 0
-10 -7 -10 -16z"/>
<path d="M3767 1193 c-4 -3 -7 -11 -7 -17 0 -6 5 -5 12 2 6 6 9 14 7 17 -3 3
-9 2 -12 -2z"/>
<path d="M3940 1189 c0 -5 9 -9 20 -9 11 0 20 2 20 4 0 2 -9 6 -20 9 -11 3
-20 1 -20 -4z"/>
<path d="M4300 1194 c0 -9 31 -37 36 -32 9 9 -8 38 -22 38 -8 0 -14 -3 -14 -6z"/>
<path d="M4385 1186 c-18 -13 -18 -15 -2 -40 10 -14 19 -26 20 -26 2 0 3 18 3
40 0 22 -1 40 -1 40 -1 0 -10 -6 -20 -14z"/>
<path d="M4450 1185 c11 -13 9 -19 -9 -35 -13 -10 -21 -27 -19 -37 4 -24 34
-24 30 1 -2 10 0 25 4 35 13 29 12 51 -4 51 -12 0 -12 -3 -2 -15z"/>
<path d="M3650 1175 c0 -8 3 -15 6 -15 3 0 12 7 20 15 14 13 13 15 -5 15 -12
0 -21 -6 -21 -15z"/>
<path d="M4610 1155 c6 -16 5 -25 -3 -28 -7 -2 -8 -5 -1 -10 6 -3 24 8 40 25
24 25 25 29 7 19 -26 -13 -36 -14 -29 -2 3 5 -1 11 -9 14 -11 5 -12 1 -5 -18z"/>
<path d="M3865 1160 c-3 -5 -2 -10 4 -10 5 0 13 5 16 10 3 6 2 10 -4 10 -5 0
-13 -4 -16 -10z"/>
<path d="M4486 1138 c-8 -18 21 -78 37 -78 5 0 2 10 -6 23 -8 13 -17 34 -19
48 -4 20 -6 21 -12 7z"/>
<path d="M2443 1133 c-15 -5 -17 -23 -4 -23 5 0 11 7 15 15 3 8 4 15 3 14 -1
0 -8 -3 -14 -6z"/>
<path d="M4198 1133 c6 -2 18 -2 25 0 6 3 1 5 -13 5 -14 0 -19 -2 -12 -5z"/>
<path d="M4548 1123 c6 -2 10 -9 7 -14 -4 -5 1 -6 9 -3 20 8 11 24 -12 23 -11
0 -12 -2 -4 -6z"/>
<path d="M4155 1095 c-16 -13 -26 -27 -22 -31 3 -4 13 -2 20 4 8 7 17 9 20 5
8 -7 20 22 15 36 -1 5 -16 -1 -33 -14z"/>
<path d="M4303 1105 c0 -8 4 -15 9 -15 4 0 8 4 8 9 0 6 -4 12 -8 15 -5 3 -9
-1 -9 -9z"/>
<path d="M4658 1106 c-26 -19 -22 -26 15 -26 17 0 27 4 21 8 -6 4 -13 12 -15
19 -3 9 -8 8 -21 -1z"/>
<path d="M4105 1100 c-8 -13 15 -13 35 0 12 8 11 10 -7 10 -12 0 -25 -4 -28
-10z"/>
<path d="M4015 1090 c-3 -5 -1 -10 4 -10 6 0 11 5 11 10 0 6 -2 10 -4 10 -3 0
-8 -4 -11 -10z"/>
<path d="M4606 1085 c4 -8 11 -15 16 -15 6 0 5 6 -2 15 -7 8 -14 15 -16 15 -2
0 -1 -7 2 -15z"/>
<path d="M3906 1074 c-10 -27 -7 -44 9 -39 8 3 22 7 31 10 8 3 12 10 8 16 -5
8 -9 8 -14 -1 -4 -7 -13 -9 -19 -5 -9 5 -7 11 6 21 16 12 16 13 2 14 -9 0 -20
-7 -23 -16z"/>
<path d="M4476 1065 c-3 -8 -1 -15 4 -15 13 0 22 18 11 24 -5 3 -11 -1 -15 -9z"/>
<path d="M4058 1050 c-16 -14 -19 -19 -8 -20 25 0 60 12 60 20 0 18 -31 18
-52 0z"/>
<path d="M4300 1040 c0 -5 -7 -10 -17 -10 -9 0 -14 -2 -11 -5 9 -9 58 6 52 16
-7 12 -24 11 -24 -1z"/>
<path d="M4430 1040 c0 -5 5 -10 11 -10 5 0 7 5 4 10 -3 6 -8 10 -11 10 -2 0
-4 -4 -4 -10z"/>
<path d="M4222 1031 c4 -13 18 -16 19 -4 0 4 -5 9 -11 12 -7 2 -11 -2 -8 -8z"/>
<path d="M4360 1015 c-14 -16 -10 -18 14 -9 9 3 16 10 16 15 0 14 -16 11 -30
-6z"/>
</g>
</svg>
